<?xml version="1.0" encoding="UTF-8" standalone="no"?><!DOCTYPE svg PUBLIC "-//W3C//DTD SVG 1.1//EN" "http://www.w3.org/Graphics/SVG/1.1/DTD/svg11.dtd"><svg width="100%" height="100%" viewBox="0 0 201 204" version="1.1" xmlns="http://www.w3.org/2000/svg" xmlns:xlink="http://www.w3.org/1999/xlink" xml:space="preserve" xmlns:serif="http://www.serif.com/" style="fill-rule:evenodd;clip-rule:evenodd;stroke-linejoin:round;stroke-miterlimit:2;"><path id="path134" d="M50.189,203.404c-14.995,-1.067 -22.835,-6.472 -26.861,-12.471c0.772,-14.603 3.007,-32.791 9.291,-49.298c3.603,-9.453 8.715,-18.01 14.986,-24.3c6.857,-7.498 13.193,-13.267 19.577,-18.025c12.601,-9.332 23.656,-13.398 27.154,-14.828c3.539,-1.365 9.884,-3.931 17.561,-6.789c7.653,-2.621 16.923,-6.413 24.836,-11.05c16.222,-8.871 29.667,-18.88 29.646,-18.884c0.027,0.004 -14.349,7.971 -31.053,14.585c-8.428,3.592 -17.039,5.954 -25.076,7.815c-7.91,2.034 -14.59,4.106 -18.268,5.529c-6.879,2.871 -48.092,16.059 -69.142,60.265c-4.762,11.291 -7.748,22.971 -9.682,33.916c-4.758,-2.686 -10.682,-7.884 -12.296,-17.504c-2.812,-16.761 -1.247,-67.057 44.331,-94.997c45.581,-27.936 96.469,-22.352 120.823,-30.546c24.351,-8.193 34.029,-26.822 34.029,-26.822c0,0 -20.294,189.619 -149.856,203.404Z" style="fill:#fff;fill-rule:nonzero;"/></svg>